<?xml version="1.0" standalone="no"?>
<!DOCTYPE svg PUBLIC "-//W3C//DTD SVG 20010904//EN"
 "http://www.w3.org/TR/2001/REC-SVG-20010904/DTD/svg10.dtd">
<svg version="1.0" xmlns="http://www.w3.org/2000/svg"
 width="512.000000pt" height="512.000000pt" viewBox="0 0 512.000000 512.000000"
 preserveAspectRatio="xMidYMid meet">
<metadata>
Created by potrace 1.11, written by Peter Selinger 2001-2013
</metadata>
<g transform="translate(0.000000,512.000000) scale(0.100000,-0.100000)"
fill="#000000" stroke="none">
<path d="M1182 4123 l3 -158 1388 -3 1387 -2 0 160 0 160 -1390 0 -1391 0 3
-157z m776 9 l3 -73 -83 3 -83 3 -3 59 c-5 87 -4 87 85 84 l78 -3 3 -73z m470
1 l3 -73 -86 0 -85 0 0 68 c0 38 3 72 7 76 4 4 41 5 83 4 l75 -3 3 -72z m460
0 l3 -73 -86 0 -85 0 0 68 c0 38 3 72 7 76 4 4 41 5 83 4 l75 -3 3 -72z m430
0 l3 -73 -86 0 -85 0 0 68 c0 38 3 72 7 76 4 4 41 5 83 4 l75 -3 3 -72z"/>
<path d="M1167 3903 c-4 -3 -7 -629 -7 -1390 l0 -1383 1400 0 1400 0 0 1390 0
1390 -1393 0 c-767 0 -1397 -3 -1400 -7z m2573 -208 l0 -25 -1185 0 -1185 0 0
25 0 25 1185 0 1185 0 0 -25z m-180 -1215 l0 -850 -995 0 -995 0 0 850 0 850
995 0 995 0 0 -850z"/>
<path d="M1984 3027 c-2 -7 -3 -111 -2 -232 l3 -220 238 -3 237 -2 0 235 0
235 -235 0 c-182 0 -237 -3 -241 -13z"/>
<path d="M2670 2805 l0 -235 238 2 237 3 0 230 0 230 -237 3 -238 2 0 -235z"/>
<path d="M1980 2250 l0 -230 240 0 240 0 0 230 0 230 -240 0 -240 0 0 -230z"/>
<path d="M1160 960 l0 -110 180 0 180 0 0 110 0 110 -180 0 -180 0 0 -110z"/>
<path d="M3610 960 l0 -110 175 0 175 0 0 110 0 110 -175 0 -175 0 0 -110z"/>
</g>
</svg>
